<svg width="334" height="316" viewBox="0 0 334 316" fill="none" xmlns="http://www.w3.org/2000/svg">
<path d="M132.624 245.481C132.624 223.389 150.532 205.48 172.624 205.48H243.143V316H172.624C150.532 316 132.624 298.091 132.624 276V245.481Z" fill="#74F0A1"/>
<path d="M223.25 94.9607H313.769C324.815 94.9607 333.769 103.915 333.769 114.961V205.48H223.25V94.9607Z" fill="#86EFAC"/>
<path d="M243.143 205.48H333.769V296C333.769 307.046 324.815 316 313.769 316H243.143V205.48Z" fill="#5ACF85"/>
<circle cx="187.331" cy="166.246" r="35.9189" fill="#5ACF85"/>
<path fill-rule="evenodd" clip-rule="evenodd" d="M66.3118 316C102.935 316 132.624 286.311 132.624 249.688C132.624 213.065 102.935 183.376 66.3118 183.376C29.6888 183.376 0 213.065 0 249.688C0 286.311 29.6888 316 66.3118 316ZM65.7592 288.37C87.4278 288.37 104.994 270.804 104.994 249.136C104.994 227.467 87.4278 209.901 65.7592 209.901C44.0906 209.901 26.5247 227.467 26.5247 249.136C26.5247 270.804 44.0906 288.37 65.7592 288.37Z" fill="#5ACF85"/>
<path fill-rule="evenodd" clip-rule="evenodd" d="M106.651 190.008C133.203 190.008 154.728 168.483 154.728 141.932C154.728 115.38 133.203 93.8555 106.651 93.8555C80.0998 93.8555 58.5754 115.38 58.5754 141.932C58.5754 168.483 80.0998 190.008 106.651 190.008ZM106.251 169.976C121.96 169.976 134.696 157.241 134.696 141.531C134.696 125.821 121.96 113.086 106.251 113.086C90.541 113.086 77.8057 125.821 77.8057 141.531C77.8057 157.241 90.541 169.976 106.251 169.976Z" fill="#86EFAC"/>
<path d="M177.777 0.819092L233.36 95.9107H122.193L177.777 0.819092Z" fill="#74F0A1"/>
<mask id="mask0_643_111" style="mask-type:alpha" maskUnits="userSpaceOnUse" x="0" y="0" width="334" height="316">
<path d="M132.624 245.481C132.624 223.389 150.532 205.48 172.624 205.48H243.143V316H172.624C150.532 316 132.624 298.091 132.624 276V245.481Z" fill="#74F0A1"/>
<path d="M223.25 94.9607H313.769C324.815 94.9607 333.769 103.915 333.769 114.961V205.48H223.25V94.9607Z" fill="#86EFAC"/>
<path d="M243.143 205.48H333.769V296C333.769 307.046 324.815 316 313.769 316H243.143V205.48Z" fill="#5ACF85"/>
<circle cx="187.331" cy="166.246" r="35.9189" fill="#5ACF85"/>
<path fill-rule="evenodd" clip-rule="evenodd" d="M66.3118 316C102.935 316 132.624 286.311 132.624 249.688C132.624 213.065 102.935 183.376 66.3118 183.376C29.6888 183.376 0 213.065 0 249.688C0 286.311 29.6888 316 66.3118 316ZM65.7592 288.37C87.4278 288.37 104.994 270.804 104.994 249.136C104.994 227.467 87.4278 209.901 65.7592 209.901C44.0906 209.901 26.5247 227.467 26.5247 249.136C26.5247 270.804 44.0906 288.37 65.7592 288.37Z" fill="#5ACF85"/>
<path fill-rule="evenodd" clip-rule="evenodd" d="M106.651 190.008C133.203 190.008 154.728 168.483 154.728 141.932C154.728 115.38 133.203 93.8555 106.651 93.8555C80.0998 93.8555 58.5754 115.38 58.5754 141.932C58.5754 168.483 80.0998 190.008 106.651 190.008ZM106.251 169.976C121.96 169.976 134.696 157.241 134.696 141.531C134.696 125.821 121.96 113.086 106.251 113.086C90.541 113.086 77.8057 125.821 77.8057 141.531C77.8057 157.241 90.541 169.976 106.251 169.976Z" fill="#86EFAC"/>
<path d="M177.777 0.819092L233.36 95.9107H122.193L177.777 0.819092Z" fill="#74F0A1"/>
</mask>
<g mask="url(#mask0_643_111)">
<circle cx="140.912" cy="193.876" r="201.198" stroke="black" stroke-opacity="0.25"/>
<circle cx="137.044" cy="183.376" r="190.699" stroke="black" stroke-opacity="0.25"/>
<circle cx="119.914" cy="177.298" r="183.515" stroke="black" stroke-opacity="0.25"/>
<circle cx="96.7047" cy="165.141" r="183.515" stroke="black" stroke-opacity="0.25"/>
<circle cx="73.4957" cy="152.984" r="183.515" stroke="black" stroke-opacity="0.25"/>
<circle cx="50.2864" cy="140.826" r="183.515" stroke="black" stroke-opacity="0.25"/>
<circle cx="27.0772" cy="128.669" r="183.515" stroke="black" stroke-opacity="0.25"/>
<circle cx="3.86823" cy="116.512" r="183.515" stroke="black" stroke-opacity="0.25"/>
<circle cx="-19.341" cy="104.355" r="183.515" stroke="black" stroke-opacity="0.25"/>
<circle cx="-42.55" cy="92.1977" r="183.515" stroke="black" stroke-opacity="0.25"/>
<circle cx="-65.7592" cy="80.0406" r="183.515" stroke="black" stroke-opacity="0.25"/>
<circle cx="-88.9682" cy="67.8834" r="183.515" stroke="black" stroke-opacity="0.25"/>
<circle cx="-112.177" cy="55.7263" r="183.515" stroke="black" stroke-opacity="0.25"/>
</g>
</svg>
