<svg width="300" height="200" viewBox="0 0 300 200" fill="none" xmlns="http://www.w3.org/2000/svg">
<path d="M0 50C0 22.3858 22.3858 0 50 0H100V100H50C22.3858 100 0 77.6142 0 50V50Z" fill="#FDBA74"/>
<path d="M150 0C136.739 -1.58134e-07 124.021 5.26784 114.645 14.6447C105.268 24.0215 100 36.7392 100 50C100 63.2608 105.268 75.9785 114.645 85.3553C124.021 94.7322 136.739 100 150 100L150 50L150 0Z" fill="#A97947"/>
<path d="M150 0C163.261 -1.58134e-07 175.979 5.26784 185.355 14.6447C194.732 24.0215 200 36.7392 200 50C200 63.2608 194.732 75.9785 185.355 85.3553C175.979 94.7322 163.261 100 150 100L150 50L150 0Z" fill="#FDBA74"/>
<rect x="200" width="100" height="100" fill="#A97947"/>
<path d="M200 100H300V180C300 191.046 291.046 200 280 200H200V100Z" fill="#D4893A"/>
<path d="M100 100H200V160C200 182.091 182.091 200 160 200H100V100Z" fill="#FDBA74"/>
<path fill-rule="evenodd" clip-rule="evenodd" d="M100 100H0V151C0 178.062 21.938 200 49 200H100V100ZM75 125H25V153C25 165.15 34.8497 175 47 175H75V125Z" fill="#D4893A"/>
<rect x="200" y="135" width="100" height="30" fill="#A97947"/>
<mask id="mask0_639_254" style="mask-type:alpha" maskUnits="userSpaceOnUse" x="0" y="0" width="300" height="200">
<path d="M0 50C0 22.3858 22.3858 0 50 0H100V100H50C22.3858 100 0 77.6142 0 50V50Z" fill="#FDBA74"/>
<path d="M150 0C136.739 -1.58134e-07 124.021 5.26784 114.645 14.6447C105.268 24.0215 100 36.7392 100 50C100 63.2608 105.268 75.9785 114.645 85.3553C124.021 94.7322 136.739 100 150 100L150 50L150 0Z" fill="#A97947"/>
<path d="M150 0C163.261 -1.58134e-07 175.979 5.26784 185.355 14.6447C194.732 24.0215 200 36.7392 200 50C200 63.2608 194.732 75.9785 185.355 85.3553C175.979 94.7322 163.261 100 150 100L150 50L150 0Z" fill="#FDBA74"/>
<rect x="200" width="100" height="100" fill="#A97947"/>
<path d="M200 100H300V180C300 191.046 291.046 200 280 200H200V100Z" fill="#D4893A"/>
<path d="M100 100H200V160C200 182.091 182.091 200 160 200H100V100Z" fill="#FDBA74"/>
<path fill-rule="evenodd" clip-rule="evenodd" d="M100 100H0V151C0 178.062 21.938 200 49 200H100V100ZM75 125H25V153C25 165.15 34.8497 175 47 175H75V125Z" fill="#D4893A"/>
<rect x="200" y="135" width="100" height="30" fill="#A97947"/>
</mask>
<g mask="url(#mask0_639_254)">
<circle cx="192" cy="118" r="191.5" stroke="black" stroke-opacity="0.25"/>
<circle cx="210" cy="127" r="191.5" stroke="black" stroke-opacity="0.25"/>
<circle cx="228" cy="136" r="191.5" stroke="black" stroke-opacity="0.25"/>
<circle cx="246" cy="145" r="191.5" stroke="black" stroke-opacity="0.25"/>
<circle cx="264" cy="154" r="191.5" stroke="black" stroke-opacity="0.25"/>
<circle cx="282" cy="163" r="191.5" stroke="black" stroke-opacity="0.25"/>
<circle cx="300" cy="172" r="191.5" stroke="black" stroke-opacity="0.25"/>
<circle cx="318" cy="181" r="191.5" stroke="black" stroke-opacity="0.25"/>
<circle cx="336" cy="190" r="191.5" stroke="black" stroke-opacity="0.25"/>
<circle cx="354" cy="199" r="191.5" stroke="black" stroke-opacity="0.25"/>
<circle cx="372" cy="208" r="191.5" stroke="black" stroke-opacity="0.25"/>
<circle cx="390" cy="217" r="191.5" stroke="black" stroke-opacity="0.25"/>
<circle cx="408" cy="226" r="191.5" stroke="black" stroke-opacity="0.25"/>
<circle cx="426" cy="235" r="191.5" stroke="black" stroke-opacity="0.25"/>
<circle cx="444" cy="244" r="191.5" stroke="black" stroke-opacity="0.25"/>
<circle cx="462" cy="253" r="191.5" stroke="black" stroke-opacity="0.25"/>
</g>
</svg>
