<svg width="200" height="200" viewBox="0 0 200 200" fill="none" xmlns="http://www.w3.org/2000/svg">
<rect width="100" height="100" fill="#FEF08A"/>
<circle cx="50" cy="150" r="50" fill="#D4C23B"/>
<path d="M100 0L200 52V143H100V0Z" fill="#D4C23B"/>
<rect x="100" y="143" width="100" height="57" fill="#FEF08A"/>
<mask id="mask0_639_110" style="mask-type:alpha" maskUnits="userSpaceOnUse" x="0" y="0" width="200" height="200">
<rect width="100" height="100" fill="#FEF08A"/>
<circle cx="50" cy="150" r="50" fill="#D4C23B"/>
<path d="M100 0L200 52V143H100V0Z" fill="#D4C23B"/>
<rect x="100" y="143" width="100" height="57" fill="#FEF08A"/>
</mask>
<g mask="url(#mask0_639_110)">
<circle cx="-64" cy="13" r="92.5" stroke="black" stroke-opacity="0.25"/>
<circle cx="-43" cy="24" r="92.5" stroke="black" stroke-opacity="0.25"/>
<circle cx="-22" cy="35" r="92.5" stroke="black" stroke-opacity="0.25"/>
<circle cx="7" cy="57" r="92.5" stroke="black" stroke-opacity="0.25"/>
<circle cx="21" cy="71" r="106.5" stroke="black" stroke-opacity="0.25"/>
<circle cx="50" cy="85" r="106.5" stroke="black" stroke-opacity="0.25"/>
<circle cx="64" cy="84" r="121.5" stroke="black" stroke-opacity="0.25"/>
<circle cx="83" cy="88" r="131.5" stroke="black" stroke-opacity="0.25"/>
</g>
</svg>
