<svg width="300" height="200" viewBox="0 0 300 200" fill="none" xmlns="http://www.w3.org/2000/svg">
<path d="M0 140C0 117.909 17.9086 100 40 100H100V200H0V140Z" fill="#8838D9"/>
<rect x="100" y="100" width="100" height="100" fill="#C084FC"/>
<path d="M200 100H300V190C300 195.523 295.523 200 290 200H200V100Z" fill="#8838D9"/>
<path d="M285.355 85.3553C290.47 80.2402 294.415 74.0762 296.916 67.2885C299.417 60.5009 300.416 53.2513 299.843 46.0402C299.27 38.8291 297.139 31.8281 293.598 25.5206C290.056 19.213 285.188 13.749 279.329 9.50573C273.471 5.26244 266.761 2.34092 259.664 0.942785C252.566 -0.455347 245.25 -0.296787 238.22 1.40752C231.19 3.11183 224.613 6.32129 218.944 10.8144C213.275 15.3075 208.648 20.9773 205.383 27.4324L250 50L285.355 85.3553Z" fill="#8938D9"/>
<path d="M285.355 85.3553C276.943 93.768 265.806 98.9053 253.946 99.8441C242.085 100.783 230.279 97.4618 220.647 90.4775C211.016 83.4931 204.191 73.3032 201.397 61.7383C198.604 50.1735 200.027 37.9917 205.409 27.3813L250 50L285.355 85.3553Z" fill="#C084FC"/>
<path d="M200 101.525C200 88.264 198.384 72.7629 192.5 68.1396C186.616 63.5162 173.138 58 159.877 58C146.616 58 121.377 70.1459 112 79.5227C106.5 85.0207 100 88.2639 100 101.525L150 101.525H200Z" fill="#C084FC"/>
<mask id="mask0_639_175" style="mask-type:alpha" maskUnits="userSpaceOnUse" x="0" y="0" width="300" height="200">
<path d="M0 140C0 117.909 17.9086 100 40 100H100V200H0V140Z" fill="#8838D9"/>
<rect x="100" y="100" width="100" height="100" fill="#C084FC"/>
<path d="M200 100H300V190C300 195.523 295.523 200 290 200H200V100Z" fill="#8838D9"/>
<path d="M285.355 85.3553C290.47 80.2402 294.415 74.0762 296.916 67.2885C299.417 60.5009 300.416 53.2513 299.843 46.0402C299.27 38.8291 297.139 31.8281 293.598 25.5206C290.056 19.213 285.188 13.749 279.329 9.50573C273.471 5.26244 266.761 2.34092 259.664 0.942785C252.566 -0.455347 245.25 -0.296787 238.22 1.40752C231.19 3.11183 224.613 6.32129 218.944 10.8144C213.275 15.3075 208.648 20.9773 205.383 27.4324L250 50L285.355 85.3553Z" fill="#8938D9"/>
<path d="M285.355 85.3553C276.943 93.768 265.806 98.9053 253.946 99.8441C242.085 100.783 230.279 97.4618 220.647 90.4775C211.016 83.4931 204.191 73.3032 201.397 61.7383C198.604 50.1735 200.027 37.9917 205.409 27.3813L250 50L285.355 85.3553Z" fill="#C084FC"/>
<path d="M200 101.525C200 88.264 198.384 72.7629 192.5 68.1396C186.616 63.5162 173.138 58 159.877 58C146.616 58 121.377 70.1459 112 79.5227C106.5 85.0207 100 88.2639 100 101.525L150 101.525H200Z" fill="#C084FC"/>
</mask>
<g mask="url(#mask0_639_175)">
<circle cx="261" cy="5" r="110.5" stroke="black" stroke-opacity="0.25"/>
<circle cx="255" cy="22" r="110.5" stroke="black" stroke-opacity="0.25"/>
<circle cx="249" cy="39" r="110.5" stroke="black" stroke-opacity="0.25"/>
<circle cx="243" cy="56" r="110.5" stroke="black" stroke-opacity="0.25"/>
<circle cx="235" cy="75" r="110.5" stroke="black" stroke-opacity="0.25"/>
<circle cx="227" cy="94" r="110.5" stroke="black" stroke-opacity="0.25"/>
<circle cx="231.5" cy="94.5" r="131" stroke="black" stroke-opacity="0.25"/>
<circle cx="212.5" cy="101.5" r="131" stroke="black" stroke-opacity="0.25"/>
<circle cx="204.5" cy="97.5" r="142" stroke="black" stroke-opacity="0.25"/>
<circle cx="189.5" cy="111.5" r="142" stroke="black" stroke-opacity="0.25"/>
<circle cx="187.5" cy="101.5" r="165" stroke="black" stroke-opacity="0.25"/>
<circle cx="170.5" cy="109.5" r="165" stroke="black" stroke-opacity="0.25"/>
<circle cx="171" cy="110" r="179.5" stroke="black" stroke-opacity="0.25"/>
</g>
</svg>
